8_ID_stride4.mot
nRows=13
nColumns=38

name 8_ID_stride4.mot
datacolumns 38
datarows 13
range 2.0700000000 2.1300000000
endheader
time	pelvis_tilt_moment	pelvis_list_moment	pelvis_rotation_moment	pelvis_tx_force	pelvis_ty_force	pelvis_tz_force	hip_flexion_r_moment	hip_adduction_r_moment	hip_rotation_r_moment	knee_angle_r_moment	ankle_angle_r_moment	subtalar_angle_r_moment	mtp_angle_r_moment	hip_flexion_l_moment	hip_adduction_l_moment	hip_rotation_l_moment	knee_angle_l_moment	ankle_angle_l_moment	subtalar_angle_l_moment	mtp_angle_l_moment	lumbar_extension_moment	lumbar_bending_moment	lumbar_rotation_moment	arm_flex_r_moment	arm_add_r_moment	arm_rot_r_moment	elbow_flex_r_moment	pro_sup_r_moment	wrist_flex_r_moment	wrist_dev_r_moment	arm_flex_l_moment	arm_add_l_moment	arm_rot_l_moment	elbow_flex_l_moment	pro_sup_l_moment	wrist_flex_l_moment	wrist_dev_l_moment
        2.0700000000	       -0.3466969881	      -21.4608902880	      -10.1794685497	       44.2598483034	      140.9636926392	       83.6383356456	      -46.1206720095	        0.8245116511	       -0.0684511123	      -40.2312782866	       -0.0817847134	       -0.0542637817	        0.0885039480	       56.5093019504	      -20.9181075773	        9.5498373585	       24.5234281235	        4.8297421768	       -1.0961682622	        0.2640018713	      -22.2841348313	       -9.9675245709	       -3.7467569148	       -3.5248994936	       -1.2075382165	       -0.4230723275	       -1.3250744691	        0.0181488693	       -0.0643163735	        0.1470718809	       -3.7571862427	        1.0559112970	        1.1558796486	       -1.6794578341	        0.0518352460	        0.0721709143	        0.2015298256	
        2.0750000000	       25.9227073640	       -2.3220054545	      -10.5544845905	      -16.3521309535	      282.2919261525	       74.1476959773	      -31.5342001891	       -9.3497588042	        1.6528791824	      -35.2732107686	       -5.2267328857	        6.5705642231	        0.1682198255	       52.6742011388	      -15.1309877972	        8.3257961484	       23.2996305232	        4.8037231434	       -1.0004524427	        0.2675916838	       -4.4521108901	      -21.4837414821	       -4.2260917961	       -4.7923210926	       -0.3290997180	        0.1167148105	       -0.6138239998	        0.0171774000	       -0.0051315724	        0.1048507072	       -4.9896677052	        0.4717465297	        1.0562405608	       -0.9430014825	        0.0355358661	        0.0850508629	        0.1451268063	
        2.0800000000	       56.8972957573	       22.2796479050	       -3.8475492874	      -64.3667713530	      388.0060675161	       48.4765367294	      -19.0003816925	      -27.0829571828	       13.4652152221	      -21.4920201179	       -4.6984934845	       13.0204109494	        0.2446524306	       51.5957325377	      -10.0200564828	        7.0228661235	       21.8432901314	        4.7397228568	       -0.9094030582	        0.2664658167	       14.8593199084	      -32.1513965135	       -3.6262496138	       -5.5490680720	        0.6210906624	        0.6939176954	        0.2961334613	        0.0132582733	        0.0637793886	        0.0401934115	       -5.8873785544	       -0.0888141351	        0.8551627344	       -0.0195384599	        0.0126270557	        0.0914968099	        0.0649639630	
        2.0850000000	       85.3133720908	       40.4864604652	        7.3679878188	      -80.8925491805	      393.2319308161	        6.6934518149	      -20.9437707836	      -48.9341179177	       30.6402358598	       -8.2041615802	       -7.6719807494	       21.2372169264	        0.3077677866	       54.2504890971	       -5.6878330232	        5.6437506544	       20.6510604245	        4.6515328155	       -0.8223005969	        0.2602884480	       30.5702012275	      -38.7932959851	       -1.9073216022	       -5.4817523861	        1.4445389574	        1.1985373262	        1.1967129135	        0.0087513515	        0.1287079787	       -0.0274088312	       -6.2205069997	       -0.5263157477	        0.5901090930	        0.8808468356	       -0.0121159185	        0.0859085977	       -0.0184503944	
        2.0900000000	       96.5377943641	       41.2337493031	       21.5462981550	      -68.2106943874	      325.3081831121	      -42.1488417281	      -34.6243048697	      -69.1420363460	       49.5286380190	        2.7863283066	      -15.4579854398	       29.7955465722	        0.3492216087	       59.6433960801	       -2.1709641259	        4.2143044172	       20.4977026645	        4.5361336607	       -0.7370529086	        0.2493040562	       37.3842742029	      -37.8554389325	        0.8243775413	       -4.9085734685	        1.9214162144	        1.5462481205	        1.8772219181	        0.0054678945	        0.1773381411	       -0.0805147483	       -6.0521935049	       -0.6956168351	        0.3066177845	        1.5538217151	       -0.0333222151	        0.0695975782	       -0.0851640309	
        2.0950000000	       91.8427118248	       33.9013392775	       34.3848672999	      -31.3368342835	      160.6289385627	      -69.2743180978	      -64.0720615864	      -73.4293834184	       59.5749915693	        9.6328265438	      -28.2314911404	       36.8426220949	        0.3553550772	       66.1269372798	        0.4903474478	        2.8112460503	       20.7926423994	        4.3909987634	       -0.6535737720	        0.2344164263	       36.9272859961	      -31.8634492288	        4.3197789461	       -3.7896078944	        1.9535169783	        1.6137620329	        2.0478918288	        0.0050257177	        0.1989499709	       -0.0968472357	       -5.5521995757	       -0.6556282470	        0.0667621253	        1.7555064198	       -0.0457139209	        0.0436989666	       -0.1151858084	
        2.1000000000	       60.4884586520	        7.7385050706	       43.7376702971	       22.2660313424	      -51.2511160775	      -80.0745705917	     -103.4683336277	      -72.3556243790	       63.4681012969	       14.2229483440	      -44.3918809676	       41.9400048898	        0.3443513424	       72.0646570750	        2.4851781203	        1.4862020913	       22.1974377177	        4.2205576145	       -0.5725529420	        0.2171700330	       29.9441556302	      -18.1414272433	        8.2977272874	       -2.4671985061	        1.6794610978	        1.6105172473	        2.0655874405	        0.0061353842	        0.2069504997	       -0.0999690969	       -4.8541420425	       -0.3421376229	       -0.1192900007	        1.7933953956	       -0.0519789839	        0.0130912696	       -0.1261424520	
        2.1050000000	       14.3833125103	      -18.7699403187	       47.1346034107	       73.2548959992	     -246.9001084682	      -57.6623987431	     -140.2498306141	      -58.0450946889	       55.1168113699	       20.2323501323	      -59.9878289132	       44.3374195103	        0.3078686281	       75.7415021369	        3.7997728237	        0.3388609395	       23.8235344582	        4.0399810307	       -0.4972944130	        0.2005344569	       21.5042264102	       -2.2706339735	       12.3684708789	       -1.2623162872	        1.1975365277	        1.5030647899	        1.8519044288	        0.0086460673	        0.2050218603	       -0.0854945241	       -4.2672076815	        0.0889818946	       -0.2397749523	        1.6357968402	       -0.0529468587	       -0.0156657663	       -0.1201054401	
        2.1100000000	      -34.4285020630	      -34.3314554184	       46.8704567619	      111.4675782797	     -387.1185764765	      -16.8147310764	     -163.7506888768	      -38.2690699309	       41.1331576455	       31.9955427304	      -72.6852904220	       45.0624138250	        0.2557891952	       76.5768038151	        4.5133104597	       -0.6199550146	       25.2991061052	        3.8798877287	       -0.4309199588	        0.1876516348	       17.8548302645	       12.3095534288	       16.3383976648	       -0.2751870487	        0.8700552065	        1.5036170010	        1.8244553772	        0.0108366118	        0.2120845693	       -0.0844474359	       -3.8832379770	        0.4689568438	       -0.3697353801	        1.6452260158	       -0.0564326193	       -0.0407077374	       -0.1261563790	
        2.1150000000	      -68.7122696656	      -33.1418170821	       46.9491178919	      118.5838699900	     -411.6205787127	       21.9382726818	     -165.6633109150	      -22.2426025248	       30.8811535871	       52.5477388579	      -81.5033426117	       45.6763028006	        0.1994196545	       76.2357846879	        4.6356983572	       -1.4628027587	       25.8629745210	        3.7672300098	       -0.3725097900	        0.1833669594	       19.7286562310	       19.8053040953	       20.0930077890	        0.5362489595	        0.9470514310	        1.6507164547	        2.0137222681	        0.0110286319	        0.2415068639	       -0.1012912779	       -3.6656952462	        0.5109727353	       -0.5821689588	        1.9031754058	       -0.0679264289	       -0.0634037333	       -0.1593639704	
        2.1200000000	      -77.9986765320	      -16.2359070005	       48.8741041964	      113.9060463517	     -389.0469009903	       33.9504636017	     -153.6459860819	      -17.0721221556	       28.7602817628	       81.0550201018	      -87.7057720701	       46.8928984961	        0.1478561443	       74.9708949783	        4.5993039355	       -2.3120573964	       25.8087718838	        3.7246097858	       -0.3170114350	        0.1838179189	       29.8233105504	       20.5426196879	       23.5726229930	        1.3166820824	        1.6030160898	        2.1242316040	        2.7928280617	        0.0096787731	        0.3054205752	       -0.1628299618	       -3.4824083279	        0.2832758208	       -0.9574013614	        2.6873616434	       -0.0934756087	       -0.0870673078	       -0.2402091135	
        2.1250000000	      -65.7805588703	       13.9117823456	       54.8946788922	       74.0754368359	     -245.4501578259	       16.8055484187	     -124.3803855631	      -18.9691413077	       36.3843585112	      113.3562917361	      -92.7557281639	       49.6700555542	        0.1047424421	       73.8843103527	        4.3478715649	       -3.2694397996	       24.3800393715	        3.7182880327	       -0.2594743004	        0.1936623015	       46.6374423580	       10.5074502322	       26.7874626057	        2.1959188971	        3.0353296112	        2.9056253634	        4.1153269448	        0.0057605235	        0.4040243115	       -0.2663240846	       -3.2188133544	       -0.5197252848	       -1.5409393875	        3.9557637419	       -0.1346806789	       -0.1145730481	       -0.3685372467	
        2.1300000000	      -40.0468653725	       40.1848815186	       62.2336360104	       21.6700147628	      -65.4176016948	      -28.3535951599	      -96.3556563960	      -25.7922526504	       47.7189186674	      139.8793531931	     -100.9450023503	       53.6156841950	        0.0740446489	       73.0558677408	        4.3320675708	       -4.3901007134	       22.2172651602	        3.7206135111	       -0.1929495237	        0.2062524733	       64.6202026142	       -5.7456851625	       29.6449774483	        3.2957461787	        4.8648285661	        3.8401314785	        5.7179402455	        0.0010077726	        0.5191648221	       -0.3910639388	       -2.7603259771	       -1.5905565683	       -2.2560424730	        5.4485685816	       -0.1846049611	       -0.1470143719	       -0.5196422125	
